<svg width="51" height="51" viewBox="0 0 51 51" fill="none" xmlns="http://www.w3.org/2000/svg">
<path d="M13.1822 41.8474C13.6025 41.7883 14.3446 41.5607 14.8305 41.3544C15.6364 41.0142 16.0232 40.7099 18.8803 38.1594L22.0415 35.3351L23.5682 34.9515C25.3771 34.4901 31.822 32.9156 38.3362 31.3448C40.9067 30.7263 43.0915 30.1686 43.1869 30.1157C43.4156 29.9538 43.7778 28.5705 43.8269 27.6344C43.9353 25.5656 43.2275 23.8133 41.9195 22.8988C41.5502 22.6476 41.5399 22.6239 41.5793 21.8727C41.6295 20.9134 41.4316 19.8253 41.0792 19.0303C40.5619 17.8443 39.263 16.7564 38.0714 16.497L37.6127 16.4034L37.5797 15.7063C37.5069 13.7787 36.1598 12.2827 33.9109 11.6317L33.1231 11.405L33.0305 10.7396C32.7016 8.61311 30.6635 7.03449 28.0868 6.88786C27.3356 6.84849 27.3131 6.83572 27.102 6.44221C26.5202 5.3803 25.312 4.5521 23.8922 4.22273C23.0102 4.02585 21.4116 4.01161 20.6021 4.20096L20.0741 4.32395L19.5768 5.63063C19.3075 6.34663 18.0875 9.72464 16.8887 13.1385C15.6784 16.5518 14.2383 20.5905 13.6711 22.1253L12.6675 24.912L9.52822 27.7606C6.68086 30.3464 6.33848 30.6877 5.9159 31.4537C4.40495 34.1906 4.73838 37.3371 6.79729 39.6238C8.45159 41.4488 10.7389 42.2525 13.1822 41.8474ZM10.4519 40.2093C7.8757 39.3906 6.19021 36.8338 6.54487 34.268C6.65661 33.4626 7.01833 32.5313 7.48229 31.8602L7.75957 31.4344L11.4065 35.4847L15.0534 39.535L14.3521 39.8691C13.0213 40.4947 11.7057 40.6111 10.4519 40.2093ZM12.5291 34.4078L8.8603 30.3332L10.9031 28.5049L12.9349 26.6644L16.6256 30.7633L20.3273 34.8744L18.3204 36.6814C17.2135 37.678 16.2904 38.4872 16.2557 38.4854C16.221 38.4836 14.5442 36.6458 12.5291 34.4078ZM30.9501 28.9876C36.1909 26.2839 40.5724 24.0566 40.6777 24.039C40.9708 23.9732 41.8141 24.9098 42.0898 25.6195C42.2943 26.1402 42.3254 26.4315 42.2709 27.4717C42.2352 28.1536 42.1459 28.7515 42.0845 28.8178C42.0121 28.872 38.9235 29.6488 35.2028 30.5432C31.4944 31.4267 26.9277 32.5433 25.0483 33.0242C23.181 33.4942 21.6081 33.8753 21.5381 33.8833C21.4797 33.8918 25.7098 31.6798 30.9501 28.9876ZM19.8393 31.3605C20.0333 31.1969 23.9748 28.0774 28.6279 24.4273C36.6411 18.1372 37.0875 17.8013 37.4306 17.8888C38.5407 18.1556 39.3614 18.8592 39.7692 19.9236C40.0151 20.5391 40.0577 20.8311 40.0153 21.6401L39.976 22.6115L30.2095 27.6392L20.443 32.667L19.9714 32.1555L19.5109 31.6562L19.8393 31.3605ZM18.0429 28.0446C18.5452 27.5263 22.0608 23.9093 25.8465 20.0052L32.7196 12.9136L33.236 13.0102C34.0043 13.1663 35.0069 13.7172 35.4206 14.2256C35.8776 14.7943 36.1369 15.5959 36.0585 16.206L35.9984 16.6896L27.2353 23.5778L18.4723 30.4661L17.7927 29.7235L17.1124 28.9925L18.0429 28.0446ZM15.3187 26.5112C15.4196 26.3542 18.1286 22.2082 21.3404 17.3121L27.1729 8.40449L28.1553 8.45597C28.9637 8.50993 29.2387 8.57069 29.8367 8.88017C30.852 9.40853 31.466 10.2983 31.6152 11.4303C31.6664 11.7806 31.273 12.212 23.8744 19.8207L16.0836 27.8376L15.6127 27.3146C15.1631 26.8275 15.1533 26.7922 15.3187 26.5112ZM15.2515 22.266C15.9031 20.4459 17.5037 15.9985 18.7833 12.3686C20.0745 8.7394 21.1711 5.72578 21.2325 5.65946C21.3049 5.60531 21.9089 5.57902 22.5908 5.61475C23.631 5.66927 23.9175 5.73064 24.4139 5.98843C25.046 6.31129 25.9239 7.24966 25.8516 7.524C25.8078 7.69555 14.1141 25.6136 14.0697 25.5765C14.0588 25.5644 14.5888 24.074 15.2515 22.266Z" fill="#151515"/>
</svg>
