<svg width="40" height="40" viewBox="0 0 40 40" fill="none" xmlns="http://www.w3.org/2000/svg" xmlns:xlink="http://www.w3.org/1999/xlink">
<path d="M0.757,1.757C-1,3.515 -1,6.343 -1,12L-1,28C-1,33.657 -1,36.485 0.757,38.243C2.515,40 5.343,40 11,40L27,40C32.657,40 35.485,40 37.243,38.243C39,36.485 39,33.657 39,28L39,12C39,6.343 39,3.515 37.243,1.757C35.485,0 32.657,0 27,0L11,0C5.343,0 2.515,0 0.757,1.757ZM30.664,15.109C31.277,14.19 31.028,12.949 30.109,12.336C29.19,11.723 27.949,11.972 27.336,12.891L21.248,22.023L20.33,20.188C18.957,17.441 15.128,17.203 13.424,19.758L7.336,28.891C6.723,29.81 6.972,31.051 7.891,31.664C8.81,32.277 10.051,32.028 10.664,31.109L16.752,21.977L17.67,23.812C19.043,26.559 22.872,26.797 24.576,24.242L30.664,15.109Z" clip-rule="evenodd" fill-rule="evenodd" fill="#707070"/>
</svg>
