<svg width="36" height="28" viewBox="0 0 36 28" fill="none" xmlns="http://www.w3.org/2000/svg" xmlns:xlink="http://www.w3.org/1999/xlink">
<path d="M6.285,7.8C7.042,10.122 9.225,11.8 11.8,11.8C14.375,11.8 16.558,10.122 17.315,7.8C22.81,7.8 28.305,7.8 33.8,7.8C34.794,7.8 35.6,6.994 35.6,6C35.6,5.006 34.794,4.2 33.8,4.2C28.305,4.2 22.81,4.2 17.315,4.2C17.296,4.139 17.322,4.22 17.315,4.2C16.558,1.878 14.375,0.2 11.8,0.2C9.225,0.2 7.042,1.878 6.285,4.2C4.79,4.2 3.295,4.2 1.8,4.2C0.806,4.2 0,5.006 0,6C0,6.994 0.806,7.8 1.8,7.8C3.295,7.8 4.79,7.8 6.285,7.8ZM11.8,3.8C10.585,3.8 9.6,4.785 9.6,6C9.6,7.215 10.585,8.2 11.8,8.2C13.015,8.2 14,7.215 14,6C14,4.785 13.015,3.8 11.8,3.8Z" clip-rule="evenodd" fill-rule="evenodd" fill="#111928"/>
<path d="M0,22C0,21.006 0.806,20.2 1.8,20.2C7.295,20.2 12.79,20.2 18.285,20.2C19.042,17.878 21.225,16.2 23.8,16.2C26.375,16.2 28.558,17.878 29.315,20.2C29.315,20.2 32.757,20.2 33.8,20.2C34.794,20.2 35.6,21.006 35.6,22C35.6,22.994 34.794,23.8 33.8,23.8C33.356,23.8 29.315,23.8 29.315,23.8C28.558,26.122 26.375,27.8 23.8,27.8C21.225,27.8 19.042,26.122 18.285,23.8C12.79,23.8 7.295,23.8 1.8,23.8C0.806,23.8 0,22.994 0,22ZM21.6,22C21.6,20.785 22.585,19.8 23.8,19.8C25.015,19.8 26,20.785 26,22C26,23.215 25.015,24.2 23.8,24.2C22.585,24.2 21.6,23.215 21.6,22Z" clip-rule="evenodd" fill-rule="evenodd" fill="#111928"/>
</svg>
