<svg width="36" height="40" viewBox="0 0 36 40" fill="none" xmlns="http://www.w3.org/2000/svg" xmlns:xlink="http://www.w3.org/1999/xlink">
<path d="M-0.294,12.898C-1,14.386 -1,16.078 -1,19.462L-1,30.03C-1,34.73 -1,37.08 0.506,38.54C1.937,39.927 4.195,39.996 8.572,40L8.572,27.538C8.572,24.999 10.678,23.046 13.144,23.046L20.858,23.046C23.323,23.046 25.429,24.999 25.429,27.538L25.429,40C29.805,39.996 32.063,39.926 33.494,38.54C35,37.08 35,34.73 35,30.03L35,19.462C35,16.078 35,14.386 34.294,12.898C33.588,11.411 32.263,10.31 29.612,8.107L27.041,5.971C22.249,1.99 19.854,0 17,0C14.146,0 11.751,1.99 6.959,5.971L4.388,8.107C1.737,10.31 0.412,11.411 -0.294,12.898ZM21.429,40L21.429,27.538C21.429,27.325 21.233,27.046 20.858,27.046L13.144,27.046C12.769,27.046 12.572,27.325 12.572,27.538L12.572,40L21.429,40Z" clip-rule="evenodd" fill-rule="evenodd" fill="#7E3AF2"/>
</svg>
