<svg width="51" height="51" viewBox="0 0 51 51" fill="none" xmlns="http://www.w3.org/2000/svg">
<path d="M37.5 15C39.5 14.5 39 11.8997 37.5 11.8997H24C23.6667 11.8997 23 12.2001 23 13.0001C23 13.8001 25.6667 20.6667 27 24.0001C27.1667 24.5 27.2 25.7 26 26.5L18.5 32" stroke="white" stroke-width="2" stroke-linecap="round"/>
<path d="M36.5 23C39.5 18 47.5 21.9999 42.5 27.4999" stroke="white" stroke-width="2" stroke-linecap="round"/>
<path d="M8 18.5H13M8.5 21.5H15" stroke="white" stroke-width="1.5" stroke-linecap="round"/>
<path d="M12 15.5H16.5" stroke="white" stroke-width="1.5" stroke-linecap="round"/>
<path d="M23.0879 10.0507C22.4336 10.285 21.9355 10.6757 21.584 11.2323C21.1934 11.8475 21.0762 12.3358 21.1348 13.1464C21.1738 13.7518 21.3984 14.3866 23.1465 18.7518C25.207 23.9081 25.2754 24.1522 24.9434 24.7284C24.8457 24.8846 22.9414 26.3886 20.5684 28.1659L16.3691 31.33L15.7637 31.3886C15.0508 31.4667 14.6113 31.6327 13.6055 32.1991C12.3066 32.9413 10.8906 33.41 9.15234 33.6542C8.41992 33.7616 8.13672 33.8397 7.96094 34.0057C7.6582 34.2889 7.6582 34.7577 7.94141 35.119C8.15625 35.3925 8.15625 35.3925 9.03516 35.3339C10.7344 35.2167 12.8535 34.5526 14.6309 33.5956C16.0762 32.8143 16.5645 32.8827 18.1172 34.0839C20.4902 35.9198 22.5801 35.9393 24.7676 34.1327C26.7012 32.5507 28.5176 32.5507 30.5977 34.1327C33.0195 35.9882 35.3438 35.8905 37.6191 33.8495C38.5566 32.9999 38.8789 32.8046 39.3184 32.8046C39.7383 32.8046 40.1387 33.0194 40.9688 33.7225C41.7793 34.4061 42.9414 34.9921 43.9277 35.2069C44.3477 35.3046 45.0898 35.3632 45.7441 35.3632C46.7109 35.3632 46.8965 35.3339 47.1113 35.1678C47.4043 34.9335 47.502 34.5819 47.375 34.2303C47.1992 33.7714 47.0234 33.7128 45.9102 33.703C44.2012 33.703 43.0684 33.2928 41.8672 32.2382C41.1348 31.6132 40.5684 31.2811 40.0117 31.1932C39.7969 31.1639 39.6113 31.0565 39.5137 30.91C39.4355 30.7831 39.2988 30.578 39.2207 30.4511L39.0742 30.2264L39.9824 30.2655C42.0918 30.3534 43.9277 29.4354 45.0996 27.7264C45.7344 26.7792 46.0176 25.9296 46.0762 24.7186C46.1348 23.6249 45.959 22.7557 45.5098 21.8378C43.7617 18.2831 38.9961 17.4921 36.1836 20.2753C35.4121 21.0468 34.9727 21.7401 34.709 22.6386C34.6113 22.9803 34.5137 23.2538 34.4844 23.2538C34.4551 23.2538 34.3672 23.1464 34.2891 23.0194C34.2109 22.8925 33.3125 21.535 32.2969 19.9921C30.793 17.7167 30.4805 17.1698 30.5781 17.0526C30.6758 16.9354 31.3301 16.9159 34.5625 16.8866L38.4395 16.8573L38.9766 16.6034C39.7773 16.2225 40.2949 15.7245 40.6562 14.9725C40.959 14.3671 40.9785 14.2499 40.9785 13.3417C40.9785 12.4139 40.959 12.3358 40.6465 11.7499C40.2461 11.0175 39.7285 10.5292 38.9863 10.1776L38.4395 9.92371L31.0176 9.90418C24.0938 9.88465 23.5664 9.89441 23.0879 10.0507ZM38.3613 11.7108C38.9961 12.0429 39.3184 12.5995 39.3184 13.3417C39.3184 14.0839 38.9961 14.6405 38.3613 14.9725C37.9609 15.1971 37.873 15.1971 33.9961 15.246C30.3047 15.2948 30.0215 15.3046 29.7285 15.4803C28.9277 15.9686 28.6055 17.0526 29.0059 17.9315C29.1035 18.1464 31.1445 21.2811 33.5469 24.9042C35.9492 28.5175 37.9023 31.4862 37.8828 31.496C37.6582 31.6229 36.9453 32.2089 36.457 32.6581C35.7246 33.3319 34.9336 33.7225 34.1914 33.7811C33.4395 33.8397 32.9609 33.6835 32.0918 33.0878C30.1484 31.7792 29.6797 31.5546 28.4004 31.3593C27.0527 31.1542 25.5684 31.535 24.377 32.3944C22.3164 33.8593 22.541 33.7518 21.6523 33.7518C20.998 33.7518 20.7637 33.703 20.2949 33.4882C19.8359 33.2733 18.9863 32.6874 18.332 32.1307C18.293 32.0917 20.002 30.744 22.1406 29.1327C26.2227 26.0663 26.4375 25.8612 26.6816 24.9628C26.7402 24.7479 26.7695 24.2401 26.7402 23.8397C26.6914 23.1659 26.5254 22.6874 24.7285 18.1952C23.498 15.1093 22.7656 13.1464 22.7656 12.9413C22.7656 12.3163 23.2637 11.6815 23.8594 11.535C24.0352 11.4862 27.2773 11.4569 31.0664 11.4667C31.0664 11.4667 36.4999 11.4667 37.9512 11.4862C38.0859 11.488 38.3613 11.7108 38.3613 11.7108ZM41.2715 20.3827C44.4941 21.2128 45.5098 25.2167 43.0879 27.4921C41.8281 28.6639 40.002 28.9374 38.4395 28.1757C36.8184 27.3846 35.8223 25.4608 36.1348 23.7518C36.5938 21.2909 38.918 19.7675 41.2715 20.3827Z" fill="#151515"/>
<path d="M9.95315 15.7344C9.69925 15.998 9.66018 16.0859 9.70901 16.3984C9.8262 17.1113 9.77737 17.1016 13.6055 17.1016H17.0137L17.2481 16.8574C17.3946 16.7109 17.4922 16.5059 17.4922 16.3301C17.4922 15.4609 17.4239 15.4414 13.5371 15.4414H10.2461L9.95315 15.7344Z" fill="#151515"/>
<path d="M6.89645 18.8105C6.55466 19.1426 6.57419 19.5723 6.93552 19.9434L7.21872 20.2266H10.4804C13.9961 20.2266 14.1133 20.207 14.3476 19.6992C14.5039 19.3867 14.4355 19.0254 14.1718 18.7617C13.9863 18.5762 13.83 18.5664 10.5586 18.5664H7.13083L6.89645 18.8105Z" fill="#151515"/>
<path d="M16.1347 18.7324C16.0176 18.8301 15.9004 19.0645 15.8711 19.2598C15.8222 19.543 15.8613 19.6602 16.0566 19.8945L16.3008 20.1777H17.9316H19.5625L19.8066 19.8945C20.0019 19.6602 20.041 19.543 19.9922 19.2598C19.8945 18.625 19.7285 18.5664 17.9316 18.5664C16.5644 18.5664 16.3105 18.5859 16.1347 18.7324Z" fill="#151515"/>
<path d="M3.87891 21.7988C3.67383 21.9551 3.625 22.082 3.625 22.4238C3.625 22.7656 3.67383 22.8926 3.87891 23.0488C4.13281 23.2539 4.2207 23.2539 9.82617 23.2539C15.4316 23.2539 15.5195 23.2539 15.7734 23.0488C16.125 22.7754 16.1348 22.1797 15.7832 21.8379L15.5488 21.5938H9.8457C4.2207 21.5938 4.13281 21.5938 3.87891 21.7988Z" fill="#151515"/>
<path d="M34.9531 36.9745C34.4648 37.1503 33.9082 37.5507 33.0684 38.3027C32.2383 39.0449 31.5254 39.3964 30.7051 39.4453C29.9629 39.4941 29.3477 39.2402 28.1855 38.4003C26.7402 37.3456 25.6855 36.9745 24.2305 36.9843C22.7656 36.9941 21.6621 37.4335 20.1777 38.6152C19.1133 39.4648 18.2832 39.6406 17.2285 39.2597C16.6426 39.0351 16.3398 38.8495 15.2461 37.9999C14.4258 37.3652 13.6055 37.0917 12.5605 37.082L11.7695 37.0722L10.168 37.873C8.43945 38.7421 7.05273 39.1816 5.58789 39.3281C4.68945 39.416 4.36719 39.6406 4.36719 40.1972C4.36719 40.4804 4.43555 40.6171 4.64062 40.7929C4.95312 41.0663 5.19727 41.0761 6.4082 40.8808C8.14648 40.5976 9.74805 40.0605 11.2422 39.2499C12.6875 38.4589 13.2832 38.5273 14.6504 39.6308C16.2324 40.9003 17.8145 41.3593 19.2793 40.9785C20.0508 40.7831 20.6465 40.4609 21.4473 39.8163C22.7461 38.7714 23.8789 38.4199 25.0508 38.7128C25.8906 38.9179 26.5449 39.2499 27.2969 39.8456C29.4941 41.5937 31.9453 41.5644 34.0547 39.7675C35.5684 38.4785 35.6758 38.4101 36.291 38.5273C36.4766 38.5663 36.8184 38.7421 37.043 38.9277C38.791 40.3437 39.5234 40.7245 40.9785 40.9785C42.4434 41.2324 43.5566 41.1347 43.8887 40.7245C44.1035 40.4511 44.1035 39.9335 43.8691 39.6503C43.7031 39.4453 43.6055 39.4257 42.5312 39.4062C40.7148 39.3671 39.7188 39.0058 38.498 37.9413C37.5801 37.1406 37.043 36.8964 36.0957 36.8574C35.5879 36.8378 35.1875 36.8769 34.9531 36.9745Z" fill="#151515"/>
</svg>
