<svg width="98" height="64" viewBox="0 0 98 64" fill="none" xmlns="http://www.w3.org/2000/svg" xmlns:xlink="http://www.w3.org/1999/xlink">
<path d="M20.25,61.96C18.395,61.276 17.066,59.889 16.461,58.054C16.285,57.507 16.109,57.057 16.09,57.038C16.07,56.999 15.641,57.116 15.133,57.292C13.805,57.741 11.5,57.604 10.23,56.979C8.902,56.335 7.711,55.046 7.223,53.737C6.832,52.722 6.813,52.272 6.813,44.968L6.813,37.253L6.129,37.253C4.137,37.253 1.734,35.495 0.973,33.444C0.426,31.979 0.426,30.026 0.973,28.561C1.734,26.53 4.137,24.753 6.129,24.753L6.793,24.753L6.852,16.803L6.91,8.835L7.379,7.878C7.965,6.686 9.078,5.593 10.289,4.987C11.5,4.401 13.824,4.264 15.133,4.714C15.641,4.889 16.07,5.007 16.09,4.968C16.109,4.948 16.285,4.479 16.461,3.932C17.086,2.038 18.648,0.514 20.601,-0.052C21.832,-0.423 24.117,-0.228 25.25,0.339C26.558,0.964 27.808,2.311 28.297,3.6C28.668,4.596 28.688,5.124 28.688,14.694L28.688,24.753L49,24.753L69.313,24.753L69.313,14.694C69.313,5.026 69.332,4.616 69.723,3.581C70.191,2.331 71.422,0.964 72.652,0.319C73.824,-0.286 76.305,-0.423 77.652,0.026C79.547,0.651 80.894,2.038 81.539,3.952C81.715,4.499 81.891,4.948 81.91,4.968C81.93,5.007 82.359,4.889 82.867,4.714C84.176,4.264 86.5,4.401 87.711,4.987C89.019,5.632 90.328,7.018 90.797,8.288C91.168,9.284 91.188,9.792 91.188,17.038L91.188,24.753L91.871,24.753C93.863,24.753 96.266,26.511 97.027,28.561C97.574,30.026 97.574,31.979 97.027,33.444C96.266,35.495 93.863,37.253 91.871,37.253L91.188,37.253L91.188,44.968C91.188,52.272 91.168,52.722 90.777,53.737C90.289,55.046 89.098,56.335 87.769,56.979C86.5,57.604 84.195,57.741 82.867,57.292C82.359,57.116 81.93,56.999 81.91,57.038C81.891,57.057 81.715,57.526 81.539,58.073C80.934,59.948 79.566,61.335 77.633,61.979C76.324,62.429 73.824,62.292 72.652,61.686C71.422,61.042 70.191,59.675 69.723,58.425C69.332,57.389 69.313,56.979 69.313,47.311L69.313,37.253L49,37.253L28.688,37.253L28.688,47.311C28.688,56.979 28.668,57.389 28.277,58.425C27.789,59.733 26.598,61.022 25.269,61.667C24.078,62.253 21.422,62.409 20.25,61.96ZM24,58.483C24.371,58.249 24.84,57.741 25.055,57.37C25.465,56.686 25.465,56.569 25.465,31.003C25.465,5.436 25.465,5.319 25.055,4.636C23.824,2.546 21.051,2.546 19.82,4.636C19.41,5.319 19.41,5.436 19.41,31.003C19.41,56.569 19.41,56.686 19.82,57.37C20.406,58.366 21.344,58.932 22.438,58.932C23.063,58.932 23.57,58.796 24,58.483ZM77.125,58.483C77.496,58.249 77.965,57.741 78.18,57.37C78.59,56.686 78.59,56.569 78.59,31.003C78.59,5.436 78.59,5.319 78.18,4.636C76.949,2.546 74.176,2.546 72.945,4.636C72.535,5.319 72.535,5.436 72.535,31.003C72.535,56.569 72.535,56.686 72.945,57.37C73.531,58.366 74.469,58.932 75.563,58.932C76.188,58.932 76.695,58.796 77.125,58.483ZM14.625,53.796C14.996,53.561 15.465,53.054 15.68,52.682C16.09,51.999 16.09,51.823 16.09,31.003C16.09,10.182 16.09,10.007 15.68,9.323C14.449,7.233 11.676,7.233 10.445,9.323C10.035,10.007 10.035,10.182 10.035,31.003C10.035,51.823 10.035,51.999 10.445,52.682C11.031,53.679 11.969,54.245 13.063,54.245C13.688,54.245 14.195,54.108 14.625,53.796ZM86.5,53.796C86.871,53.561 87.34,53.054 87.555,52.682C87.965,51.999 87.965,51.823 87.965,31.003C87.965,10.182 87.965,10.007 87.555,9.323C86.324,7.233 83.551,7.233 82.32,9.323C81.91,10.007 81.91,10.182 81.91,31.003C81.91,51.823 81.91,51.999 82.32,52.682C82.906,53.679 83.844,54.245 84.938,54.245C85.563,54.245 86.07,54.108 86.5,53.796ZM69.313,31.003L69.313,27.878L49,27.878L28.688,27.878L28.688,31.003L28.688,34.128L49,34.128L69.313,34.128L69.313,31.003ZM6.813,31.003C6.813,28.093 6.813,28.073 6.383,28.073C5.133,28.073 3.883,29.557 3.883,31.003C3.883,32.448 5.133,33.932 6.383,33.932C6.813,33.932 6.813,33.913 6.813,31.003ZM92.711,33.542C94.586,32.389 94.586,29.616 92.711,28.464C92.359,28.249 91.871,28.073 91.637,28.073C91.188,28.073 91.188,28.093 91.188,31.003C91.188,33.913 91.188,33.932 91.637,33.932C91.871,33.932 92.359,33.757 92.711,33.542Z" fill="#000000"/>
</svg>
