<svg width="51" height="45" viewBox="0 0 51 45" fill="none" xmlns="http://www.w3.org/2000/svg">
<path d="M24.3965 0.667786C22.7559 1.117 21.4277 2.3963 20.8613 4.06622C20.6269 4.77911 20.6172 4.87677 20.6172 7.37677C20.6172 8.79279 20.666 10.1404 20.7246 10.3846C20.8906 11.117 21.3789 12.0154 21.9551 12.6307C22.3164 13.0213 22.4531 13.2264 22.3652 13.2557C22.2871 13.285 21.0859 13.6658 19.6894 14.1053C18.293 14.5447 16.9355 14.9842 16.6816 15.0818C15.5293 15.5408 14.3672 16.5467 13.6934 17.6795C13.3906 18.1873 12.8828 19.574 11.6426 23.3143C10.6855 26.1756 9.86523 28.451 9.70898 28.7049C9.52343 28.9979 8.24413 30.16 5.79296 32.2693C3.79101 33.9881 2.06249 35.5311 1.96484 35.7068C1.43749 36.5565 1.96484 37.3865 3.40038 37.9822C3.74218 38.119 3.94726 38.2654 3.92773 38.3338C3.39062 39.9842 3.41015 41.117 4.01562 42.3475L4.28906 42.9041H2.58984C1.01757 42.9041 0.871086 42.9236 0.695305 43.0994C0.392571 43.4022 0.431633 44.0076 0.753899 44.2615L1.01757 44.4666H25.5H49.9824L50.2461 44.2615C50.5684 44.0076 50.6074 43.4022 50.3047 43.0994C50.1289 42.9236 49.9824 42.9041 48.5957 42.9041C47.7656 42.9041 47.082 42.8748 47.082 42.826C47.082 42.7869 47.1504 42.6697 47.2383 42.5623C47.4824 42.2303 47.7656 41.1561 47.7656 40.5115C47.7656 39.867 47.4824 38.7928 47.2383 38.4608C47.0234 38.1873 47.043 38.158 47.4531 38.0408C47.9121 37.9041 48.8008 37.3475 48.9863 37.074C49.0644 36.9568 49.1621 36.6736 49.1914 36.4393C49.2402 36.0975 49.2012 35.951 49.0156 35.6776C48.8887 35.492 47.1699 33.949 45.1973 32.2596C42.8535 30.2576 41.5059 29.0272 41.3203 28.744C41.1348 28.4608 40.4316 26.5076 39.3672 23.324C37.541 17.8651 37.3555 17.4451 36.3203 16.4295C35.3535 15.4725 34.7383 15.1795 31.75 14.2322C30.2754 13.7733 29.0547 13.3729 29.0352 13.3631C29.0156 13.3436 29.2402 13.0994 29.5234 12.8162C30.1973 12.1424 30.6269 11.3807 30.8711 10.4236C31.0371 9.77911 31.0664 9.34943 31.0664 7.46466C31.0664 4.91583 30.9687 4.29083 30.4219 3.24591C29.7773 2.02521 28.6055 1.06818 27.2676 0.677551C26.623 0.492004 25.0703 0.482239 24.3965 0.667786ZM27.3652 2.40607C28.1074 2.7674 28.791 3.47052 29.1523 4.23224L29.4551 4.867V7.40607V9.94513L29.1426 10.5994C28.0488 12.9041 25.2363 13.5096 23.3906 11.8299C23.0781 11.5369 22.7168 11.0779 22.541 10.7361L22.2285 10.1404L22.1992 7.59161C22.1699 5.18927 22.1797 5.02325 22.375 4.49591C22.7559 3.48029 23.459 2.74786 24.4844 2.31818C24.9824 2.1131 25.1777 2.0838 25.9492 2.1131C26.6621 2.13263 26.9258 2.19122 27.3652 2.40607ZM27.8437 14.6815C29.9922 15.2869 33.625 16.4979 34.123 16.7615C34.8555 17.1522 35.6367 17.9334 36.0371 18.6854C36.2129 19.0174 36.6328 20.1209 36.9746 21.1365L37.5996 22.9822L37.3359 23.119C36.4473 23.5682 34.2598 24.4471 34.2012 24.3787C34.1621 24.3397 33.8691 23.6756 33.5566 22.9139C33.2539 22.1424 32.9316 21.4686 32.8633 21.41C32.6387 21.2244 32.043 21.283 31.8086 21.5076C31.6035 21.7127 31.6035 21.7518 31.5742 27.2791L31.5547 32.8455H25.5H19.4453L19.4258 27.2791C19.3965 21.7518 19.3965 21.7127 19.1914 21.5076C18.957 21.283 18.3613 21.2244 18.1367 21.41C18.0586 21.4783 17.7656 22.0936 17.4922 22.7869C17.209 23.4901 16.9453 24.0565 16.8965 24.0565C16.8281 24.0565 13.7031 22.533 13.6152 22.4549C13.5469 22.3963 14.6894 19.1932 14.9629 18.6854C15.3633 17.9334 16.1445 17.1424 16.8769 16.7615C17.5898 16.3807 22.9219 14.6815 24.0156 14.4861C24.8262 14.3299 27.0234 14.4471 27.8437 14.6815ZM16.3105 25.5799C16.3301 25.5994 16.2324 25.9022 16.0859 26.2537C15.7539 27.0936 15.7539 27.494 16.0859 27.7576C16.6523 28.1971 17.1504 27.9041 17.5508 26.8885C17.6973 26.5076 17.834 26.2049 17.8535 26.2049C17.8633 26.2049 17.8828 27.7283 17.8828 29.5936V32.992L15.7734 33.6268C13.2148 34.3983 13.2441 34.3885 13.7324 34.0565C14.6699 33.4217 15.1777 32.7674 15.6367 31.6346C15.9785 30.7752 15.998 30.4139 15.7441 30.1014C15.5195 29.8279 14.9531 29.7986 14.6797 30.0526C14.5723 30.1404 14.3574 30.5506 14.2109 30.9608C13.7422 32.201 13.4785 32.4061 9.56249 34.5838C7.69726 35.6287 5.95898 36.5369 5.70507 36.6151C5.1582 36.7811 4.45507 36.7322 3.88866 36.4783L3.50781 36.3123L6.98437 33.3436C8.89843 31.7127 10.6074 30.1795 10.793 29.9256C11.3008 29.2322 11.4473 28.8611 12.2676 26.4002C12.6875 25.1404 13.0488 24.076 13.0684 24.0369C13.0976 23.9783 16.1543 25.4334 16.3105 25.5799ZM38.8301 26.7029C39.582 28.949 39.709 29.2322 40.207 29.9256C40.3926 30.1795 42.1016 31.7127 44.0156 33.3436L47.4922 36.3123L47.1113 36.4783C46.5449 36.7322 45.8418 36.7811 45.2949 36.6151C45.041 36.5369 43.3027 35.6287 41.4375 34.5838C38.7422 33.0897 37.9512 32.6014 37.5703 32.2108C37.1211 31.7518 37.0137 31.5369 35.9492 28.8416L34.7969 25.9608L35.9883 25.4529C36.6328 25.1697 37.3457 24.8475 37.5605 24.7498C37.7754 24.6424 37.9902 24.5643 38.0391 24.5838C38.0879 24.5936 38.4492 25.5506 38.8301 26.7029ZM34.4453 29.3299C35.1191 31.0193 35.8027 32.5818 35.9492 32.7967C36.3008 33.3045 36.7598 33.7244 37.3652 34.1151C37.6387 34.2908 37.7851 34.408 37.707 34.3787C37.6289 34.3592 36.5644 34.0369 35.3437 33.6658L33.1172 32.992V29.5838C33.1172 27.7088 33.1367 26.1951 33.166 26.2147C33.1855 26.244 33.7617 27.6404 34.4453 29.3299ZM38.3223 36.2244C41.7695 37.2693 44.7773 38.2459 45.0019 38.3729C45.7832 38.8221 46.2617 39.7986 46.1738 40.7654C46.1152 41.4686 45.793 42.0545 45.1875 42.5428L44.7578 42.9041H37.0918H29.4258L29.2695 42.4061C29.1719 42.1326 28.9961 41.7322 28.8594 41.5272L28.625 41.1463H29.1328C30.2168 41.1365 30.666 40.9022 30.6758 40.3358C30.6855 39.5643 30.4219 39.4959 27.8926 39.6326C26.7695 39.701 25.8223 39.7401 25.793 39.7303C25.7637 39.7205 23.0684 39.4276 19.8066 39.0858C14.4062 38.5291 13.8398 38.4803 13.6055 38.617C13.0684 38.91 13.1074 39.7401 13.6641 39.9647C13.8105 40.0135 16.5254 40.326 19.6894 40.658C25.6172 41.2733 26.0859 41.3318 26.6133 41.5955C27.1211 41.8592 27.7461 42.5428 27.7461 42.8553C27.7461 42.8846 23.166 42.9041 17.5605 42.9041C9.5039 42.9041 7.27734 42.8748 6.88671 42.7772C5.80273 42.494 5.13866 41.5565 5.13866 40.3162C5.14843 39.5545 5.42187 38.7928 5.83202 38.4022C5.99804 38.2459 7.75585 37.6697 12.4336 36.2537L18.8105 34.3299L25.4316 34.3201L32.0527 34.3104L38.3223 36.2244Z" fill="#151515"/>
<path d="M35.168 39.2322C34.2109 39.2908 33.3711 39.3885 33.2539 39.4568C32.8535 39.6912 32.8047 40.2186 33.1562 40.619L33.3808 40.8924L36.1836 40.7361C38.8105 40.5994 39.0058 40.5799 39.2012 40.3846C39.4648 40.1209 39.4746 39.574 39.2207 39.2908C39.0644 39.1151 38.9375 39.0955 37.9609 39.1053C37.3652 39.1151 36.1055 39.1736 35.168 39.2322Z" fill="#151515"/>
</svg>
