<svg width="45" height="45" viewBox="0 0 45 45" fill="none" xmlns="http://www.w3.org/2000/svg">
<path d="M13.5352 0.878906C13.3682 1.0459 13.3594 1.16895 13.3594 3.72656C13.3594 6.37207 13.3594 6.40723 13.1748 6.45996C12.8672 6.55664 12.2871 7.13672 12.1201 7.51465C11.9004 7.98926 11.9004 8.89453 12.1201 9.36035C12.3223 9.79102 12.7705 10.2305 13.2012 10.4062C13.3857 10.4854 13.79 10.5469 14.124 10.5469H14.7217L15.1172 11.083C15.3281 11.373 15.6357 11.7334 15.8027 11.874C15.9697 12.0234 16.0928 12.1465 16.0752 12.1641C16.0576 12.1729 14.5898 12.4453 12.8232 12.7705L9.59766 13.3506L8.63965 13.834C7.54102 14.3789 6.9873 14.8711 6.60938 15.6357C6.39844 16.084 6.37207 16.2158 6.37207 17.0947C6.37207 17.9561 6.39844 18.1143 6.60938 18.5625C6.86426 19.1162 7.42676 19.7666 7.88379 20.0479C8.04199 20.1533 9.33398 20.6807 10.749 21.2256L13.3154 22.21L13.3594 24.6885C13.4033 27.0176 13.4121 27.1846 13.5703 27.2988C13.667 27.3691 13.8164 27.4219 13.9043 27.4219C14.0537 27.4219 14.0625 27.6064 14.0625 31.0693V34.7168L14.4316 36.1846C14.6602 37.0898 14.8535 37.7051 14.959 37.8105C15.0996 37.9512 15.293 37.9688 17.0508 37.9688H18.9844V39.5068C18.9844 41.0186 18.9932 41.0713 19.3535 42.5127C19.582 43.418 19.7754 44.0332 19.8809 44.1387C20.0215 44.2793 20.2236 44.2969 22.1484 44.2969C24.0732 44.2969 24.2754 44.2793 24.416 44.1387C24.5215 44.0332 24.7148 43.418 24.9434 42.5127L25.3125 41.0449V34.2334C25.3125 27.4834 25.3125 27.4219 25.4883 27.4219C25.585 27.4219 25.7432 27.3428 25.8398 27.2461C26.0068 27.0791 26.0156 26.9561 26.0156 23.0273V18.9844H31.2451C36.3252 18.9844 36.4834 18.9756 36.958 18.7998C39.2432 17.9473 39.2432 14.3965 36.958 13.5439C36.4922 13.3682 36.2988 13.3594 33.1963 13.3594L29.9268 13.3682L26.6309 12.7705C24.8203 12.4453 23.3174 12.1729 23.2998 12.1641C23.2822 12.1465 23.4053 12.0234 23.5723 11.874C23.7393 11.7334 24.0469 11.373 24.2578 11.083L24.6533 10.5469H25.2686C26.2354 10.5381 26.9561 10.0986 27.2812 9.29883C27.4746 8.85059 27.457 7.9541 27.2549 7.51465C27.0879 7.13672 26.5078 6.55664 26.2002 6.45996C26.0332 6.40723 26.0156 6.33691 26.0156 5.71289C26.0156 5.2207 25.9629 4.86914 25.8311 4.52637C25.5938 3.88477 24.9521 3.24316 24.3369 3.00586C23.915 2.84766 23.8711 2.80371 23.7129 2.38184C23.4756 1.7666 22.834 1.125 22.1924 0.887695C21.7178 0.711914 21.542 0.703125 17.71 0.703125C13.8252 0.703125 13.7021 0.711914 13.5352 0.878906ZM21.709 2.33789C22.1133 2.5752 22.377 2.97949 22.4561 3.47168C22.5264 3.99023 22.7285 4.19238 23.2471 4.2627C24.0469 4.38574 24.4863 4.87793 24.5742 5.79199L24.6357 6.33691L24.1172 6.27539C22.9395 6.14355 21.9111 5.625 21.2959 4.84277C20.8564 4.28906 20.751 4.21875 20.4258 4.21875C19.9775 4.21875 19.8721 4.29785 19.5996 4.8252C19.4678 5.10645 19.1865 5.47559 18.9932 5.65137C18.3779 6.20508 18.1582 6.25781 16.374 6.31055L14.7656 6.3457V4.22754V2.10059L18.0879 2.12695C21.2432 2.15332 21.4189 2.16211 21.709 2.33789ZM22.0342 7.27734C22.5176 7.48828 23.4053 7.73438 23.6602 7.73438C24.0117 7.73438 23.7305 9.10547 23.2119 9.92285C21.7266 12.2344 18.5361 12.5508 16.6816 10.5645C16.0049 9.83496 15.5566 8.85059 15.5566 8.07715V7.75195L17.0332 7.7168C18.4658 7.69043 18.5098 7.68164 19.0811 7.41797C19.4062 7.25977 19.8545 6.95215 20.0918 6.71484L20.5225 6.28418L21.0498 6.67969C21.3398 6.89941 21.7793 7.16309 22.0342 7.27734ZM14.0625 8.14746C14.0625 8.33203 14.0889 8.63086 14.1152 8.80664L14.1768 9.14062L13.8955 9.04395C13.4297 8.87695 13.2891 8.33203 13.623 7.99805C13.9043 7.7168 14.0625 7.76953 14.0625 8.14746ZM25.752 7.99805C26.0859 8.33203 25.9453 8.87695 25.4795 9.04395L25.1982 9.14062L25.2598 8.80664C25.2861 8.63086 25.3125 8.33203 25.3125 8.14746C25.3125 7.76953 25.4707 7.7168 25.752 7.99805ZM20.8301 13.3682C20.8301 13.4385 20.4609 13.7637 20.2412 13.8779C20.1357 13.9307 19.8896 13.9746 19.6875 13.9746C19.4854 13.9746 19.2393 13.9307 19.1338 13.8779C18.9141 13.7637 18.5449 13.4385 18.5449 13.3682C18.5449 13.3418 19.0635 13.3154 19.6875 13.3154C20.3203 13.3154 20.8301 13.3418 20.8301 13.3682ZM17.1387 13.9307C17.4287 14.5195 18.0176 15.0732 18.6152 15.293C19.292 15.5479 20.3291 15.5127 20.9355 15.2227C21.4541 14.9678 21.9902 14.4316 22.2451 13.9219C22.4033 13.5967 22.4648 13.5264 22.623 13.5703C22.8516 13.623 28.6963 14.6777 28.7754 14.6777C28.8018 14.6777 28.8281 15.3281 28.8281 16.1279V17.5781H26.8945C25.0752 17.5781 24.9521 17.5869 24.7852 17.7539C24.6182 17.9209 24.6094 18.0439 24.6094 21.9727V26.0156H22.4297H20.2588L20.0479 25.5762C19.7666 24.9785 19.0283 24.3193 18.3867 24.082C17.9824 23.9238 17.7363 23.8975 17.0947 23.9238C16.2246 23.9502 15.7061 24.1436 15.1523 24.6357L14.8535 24.8906V23.8623C14.8535 22.834 14.8535 22.834 15.0557 22.8867C15.7412 23.0889 16.4971 23.2031 17.1914 23.2031C17.8682 23.2031 18.0527 23.168 18.4395 22.9746C20.1094 22.1396 20.1445 19.6348 18.501 18.791C18.0879 18.5713 10.9248 16.1719 10.7051 16.1719C10.5645 16.1719 10.5469 16.084 10.5469 15.4336V14.7041L11.584 14.5107C14.3174 14.001 16.752 13.5527 16.8486 13.5439C16.9014 13.5352 17.0332 13.7109 17.1387 13.9307ZM36.4746 14.9941C37.415 15.5479 37.415 16.7959 36.4746 17.3496C36.1846 17.5254 36.0088 17.5342 33.2051 17.5605L30.2344 17.5869V16.1719V14.7568L33.2051 14.7832C36.0088 14.8096 36.1846 14.8184 36.4746 14.9941ZM9.14062 15.7324V16.1719H8.78906H8.4375V16.875V17.5781H9.33398H10.2393L14.001 18.8262C16.7432 19.7402 17.833 20.1445 17.9824 20.2939C18.29 20.6016 18.2725 21.1113 17.9385 21.4541C17.7012 21.6826 17.6309 21.709 17.0684 21.709C16.6992 21.709 16.2246 21.6387 15.8818 21.5332C15.0117 21.2607 9.14941 19.002 8.74512 18.7822C8.56055 18.6768 8.2793 18.4219 8.13867 18.2109C7.91895 17.9033 7.86621 17.7275 7.83984 17.2441C7.81348 16.752 7.83984 16.5938 8.01562 16.2598C8.20898 15.8994 8.86816 15.293 9.06152 15.293C9.10547 15.293 9.14062 15.4863 9.14062 15.7324ZM18 25.5674C18.3691 25.7607 18.5449 25.9365 18.7734 26.3672C18.9316 26.6484 18.9404 26.9561 18.9668 30.208L18.9932 33.75H17.2266H15.46L15.4863 30.208C15.5127 26.7891 15.5215 26.666 15.6973 26.3232C15.9082 25.9277 16.0928 25.752 16.4795 25.5498C16.8486 25.3564 17.5957 25.3652 18 25.5674ZM23.9062 33.75V40.0781H22.1484H20.3906V33.75V27.4219H22.1484H23.9062V33.75ZM18.7207 35.2178C18.7207 35.2617 18.6416 35.5605 18.5625 35.9033L18.4043 36.5186H17.2266H16.0488L15.8906 35.9033C15.8115 35.5605 15.7324 35.2617 15.7324 35.2178C15.7324 35.1826 16.4092 35.1562 17.2266 35.1562C18.0527 35.1562 18.7207 35.1826 18.7207 35.2178ZM23.6426 41.5459C23.6426 41.5898 23.5635 41.8887 23.4844 42.2314L23.3262 42.8467H22.1484H20.9707L20.8125 42.2314C20.7334 41.8887 20.6543 41.5898 20.6543 41.5459C20.6543 41.5107 21.3311 41.4844 22.1484 41.4844C22.9746 41.4844 23.6426 41.5107 23.6426 41.5459Z" fill="#151515"/>
<path d="M17.5781 9.4043C17.5781 10.0283 18.1143 10.7754 18.7646 11.083C18.9932 11.1885 19.3184 11.25 19.6875 11.25C20.0566 11.25 20.3818 11.1885 20.6104 11.083C21.2607 10.7754 21.7969 10.0283 21.7969 9.4043V9.14062H21.0674C20.3467 9.14062 20.3379 9.14062 20.2412 9.4043C20.1357 9.68555 19.8281 9.80859 19.459 9.7207C19.3184 9.68555 19.1953 9.5625 19.1338 9.4043C19.0371 9.14062 19.0283 9.14062 18.3076 9.14062H17.5781V9.4043Z" fill="#151515"/>
<path d="M32.5898 2.90039C32.3877 3.02344 32.3438 3.19043 31.6934 6.15234C31.377 7.57617 31.0957 8.83301 31.0693 8.93848C31.0254 9.13184 30.9814 9.14062 30.2783 9.14062H29.5312V9.84375V10.5469H30.7266C31.377 10.5469 31.9922 10.5117 32.0801 10.459C32.2822 10.3535 32.3525 10.1162 32.6953 8.56934C32.8447 7.89258 32.9854 7.26855 33.0117 7.18066C33.0557 7.04883 33.2051 7.03125 34.4619 7.03125H35.8594V6.32812V5.625H34.6289C33.2578 5.625 33.3105 5.65137 33.4775 5.00977C33.5215 4.84277 33.583 4.59668 33.6094 4.45605L33.6621 4.21875H35.1123H36.5625V3.51562V2.8125H34.6553C33.5742 2.8125 32.6777 2.85645 32.5898 2.90039Z" fill="#151515"/>
</svg>
